<svg width="33" height="25" viewBox="0 0 33 25" fill="none" xmlns="http://www.w3.org/2000/svg">
<path d="M17.229 21.9533V12.4985H15.771V21.7989L13.4012 19.0225L12.3064 20.038L16.464 24.9614L20.6548 20.4686L19.6348 19.3758L17.229 21.9533Z" fill="#737373"/>
<path d="M23.7924 6.63974C23.7924 6.60114 23.7924 6.52393 23.7924 6.44376C23.7924 2.8893 21.0955 0 17.7778 0C15.6602 0 13.6562 1.25015 12.5975 3.20406C12.3785 3.16546 12.1595 3.12686 11.9406 3.12686C9.93661 3.12686 8.29576 4.76601 8.11282 6.8773C6.18094 7.54246 4.83112 9.49341 4.83112 11.7205C4.83112 14.5326 6.94593 16.7983 9.57074 16.7983H12.8525V15.2334H9.57074C7.74696 15.2334 6.28904 13.6715 6.28904 11.7175C6.28904 10.0368 7.41989 8.55208 8.94988 8.24029L9.60678 8.12448L9.57074 7.42071C9.57074 7.38211 9.57074 7.3049 9.57074 7.22473C9.57074 5.8172 10.6268 4.68583 11.9406 4.68583C12.2316 4.68583 12.4866 4.76304 12.7416 4.84321L13.3624 5.0778L13.6174 4.41264C14.3824 2.69331 15.9873 1.56194 17.775 1.56194C20.2917 1.56194 22.3317 3.75045 22.3317 6.44376C22.3317 6.71695 22.2957 6.99014 22.2596 7.30193L22.1127 8.20169H23.4265C25.2503 8.20169 26.7082 9.76363 26.7082 11.7175C26.7082 13.6715 25.2503 15.2334 23.4265 15.2334H20.1448V16.7953H23.4265C26.0513 16.7953 28.1662 14.5296 28.1662 11.7175C28.1662 9.02423 26.2343 6.83573 23.7924 6.63974Z" fill="#737373"/>
</svg>
